# xmcd
# 
# Track frame offsets:
#     150
#     12953
#     31313
#     46360
#     66701
#     84505
#     101637
#     119869
#     132854
#     155143
#     173083
#     194829
# 
# Disc length: 2903
# 
# Revision: 0
# Processed by: cddbd v1.5.2PL0 Copyright (c) Steve Scherf et al.
# Submitted via: fre:ac v1.0.27
# 
DISCID=b20b550c
DTITLE=The Informants - Crime Scene Queen
DYEAR=2000
DGENRE=Blues
TTITLE0=Crime Scene Queen
TTITLE1=Nothing But a Bad Break
TTITLE2=Get Twisted
TTITLE3=Please Mr. Jailer
TTITLE4=Salvation
TTITLE5=Marilon
TTITLE6=Goodnight My Love
TTITLE7=Don't Talk Betty
TTITLE8=Voodoo Doll
TTITLE9=Roll It Home
TTITLE10=Hold Back
TTITLE11=Travelin' On
EXTD=
EXTT0=
EXTT1=
EXTT2=
EXTT3=
EXTT4=
EXTT5=
EXTT6=
EXTT7=
EXTT8=
EXTT9=
EXTT10=
EXTT11=
PLAYORDER=
